<?xml version="1.0" encoding="iso-8859-1"?>
<!-- Generator: Adobe Illustrator 19.0.0, SVG Export Plug-In . SVG Version: 6.00 Build 0)  -->
<svg version="1.1" id="Capa_1" xmlns="http://www.w3.org/2000/svg" xmlns:xlink="http://www.w3.org/1999/xlink" x="0px" y="0px"
	 viewBox="0 0 512.001 512.001" style="enable-background:new 0 0 512.001 512.001;" xml:space="preserve">
<g>
	<g>
		<path d="M256.001,0C159.03,0,80.139,78.891,80.139,175.862c0,94.299,162.815,323.34,169.745,333.044
			c2.948,4.127,9.284,4.127,12.232,0c6.93-9.704,169.745-238.745,169.745-333.044C431.862,78.891,352.971,0,256.001,0z
			 M256.001,491.45C225.896,448.141,95.17,255.469,95.17,175.862c0-88.682,72.148-160.831,160.831-160.831
			s160.831,72.148,160.831,160.831C416.832,255.469,286.106,448.141,256.001,491.45z"/>
	</g>
</g>
<g>
	<g>
		<path d="M361.662,78.327c-2.816-3.049-7.571-3.238-10.621-0.422c-3.049,2.816-3.238,7.571-0.422,10.62
			c22.019,23.842,34.145,54.86,34.145,87.338c0,71.001-57.764,128.765-128.765,128.765s-128.765-57.764-128.765-128.765
			S184.999,47.097,256.001,47.097c24.238,0,47.849,6.768,68.282,19.573c3.469,2.175,8.185,1.092,10.359-2.377
			c2.174-3.47,1.092-8.185-2.378-10.359c-22.827-14.306-49.199-21.868-76.264-21.868c-79.289,0-143.796,64.507-143.796,143.796
			s64.507,143.796,143.796,143.796s143.796-64.507,143.796-143.796C399.797,139.593,386.254,104.954,361.662,78.327z"/>
	</g>
</g>
<g>
	<g>
		<path d="M331.526,104.89c-18.045-20.808-45.574-32.741-75.525-32.741c-57.188,0-103.713,46.526-103.713,103.713
			s46.526,103.713,103.713,103.713c4.152,0,7.515-3.365,7.515-7.516c0-4.151-3.364-7.515-7.515-7.515
			c-48.9,0-88.682-39.783-88.682-88.682c0-48.9,39.783-88.682,88.682-88.682c25.592,0,48.982,10.045,64.171,27.559
			c14.127,16.287,19.856,37.056,16.57,60.062c-2.804,19.627-14.802,34.798-24.782,38.124c-4.233,1.411-7.589,0.681-10.562-2.294
			c-12.551-12.55-5.507-56.159,1.881-80.696c1.198-3.974-1.051-8.168-5.025-9.366c-3.969-1.201-8.167,1.05-9.366,5.024
			c-0.718,2.382-3.17,10.813-5.389,21.906c-0.6-1.472-1.257-2.911-1.975-4.309c-6.296-12.256-16.311-20.123-28.199-22.15
			c-11.88-2.027-23.941,2.074-33.946,11.552c-9.416,8.921-15.941,21.686-18.373,35.943s-0.506,28.464,5.421,40
			c6.296,12.256,16.311,20.123,28.199,22.15c1.986,0.339,3.976,0.506,5.962,0.506c9.895,0,19.651-4.166,27.984-12.058
			c5.125-4.854,9.383-10.853,12.601-17.605c1.649,7.874,4.651,14.786,9.595,19.731c6.947,6.946,16.404,9.103,25.944,5.925
			c16.871-5.624,31.552-26.76,34.91-50.258C355.485,149.87,348.35,124.288,331.526,104.89z M272.127,180.664
			c-1.888,11.072-6.822,20.859-13.893,27.558c-6.484,6.143-13.968,8.858-21.081,7.647c-7.111-1.213-13.273-6.257-17.356-14.202
			c-4.45-8.664-5.862-19.533-3.973-30.605c1.888-11.072,6.822-20.859,13.893-27.558c4.611-4.369,10.525-7.674,16.988-7.914
			c5.802-0.216,11.271,2.198,15.416,6.184c2.476,2.382,4.468,5.237,6.034,8.286C272.605,158.721,274.016,169.591,272.127,180.664z"
			/>
	</g>
</g>
<g>
</g>
<g>
</g>
<g>
</g>
<g>
</g>
<g>
</g>
<g>
</g>
<g>
</g>
<g>
</g>
<g>
</g>
<g>
</g>
<g>
</g>
<g>
</g>
<g>
</g>
<g>
</g>
<g>
</g>
</svg>
