<svg id="Capa_1" enable-background="new 0 0 512 512" height="512" viewBox="0 0 512 512" width="512" xmlns="http://www.w3.org/2000/svg"><g><path d="m504.5 90h-497c-4.142 0-7.5 3.358-7.5 7.5v317c0 4.142 3.358 7.5 7.5 7.5h497c4.142 0 7.5-3.358 7.5-7.5v-317c0-4.142-3.358-7.5-7.5-7.5zm-8.284 15c-1.822 8.822-6.784 16.863-14.053 22.377l-194.434 147.488c-18.682 14.171-44.775 14.171-63.457 0l-194.435-147.488c-7.269-5.514-12.231-13.556-14.053-22.377zm.784 272.801c-1.79-1.837-3.707-3.563-5.771-5.129l-136.867-103.82c-3.3-2.502-8.004-1.858-10.508 1.443-2.503 3.3-1.857 8.005 1.443 10.508l136.867 103.82c7.269 5.514 12.231 13.556 14.053 22.377h-480.433c1.822-8.822 6.784-16.863 14.053-22.377l136.867-103.82c3.3-2.503 3.946-7.208 1.443-10.508-2.504-3.301-7.209-3.945-10.508-1.443l-136.868 103.82c-2.065 1.566-3.981 3.292-5.771 5.129v-243.602c1.79 1.837 3.707 3.563 5.771 5.129l194.435 147.488c12.009 9.109 26.402 13.665 40.794 13.665s28.785-4.555 40.794-13.665l194.435-147.488c2.065-1.566 3.981-3.292 5.771-5.129z"/></g></svg>