<?xml version="1.0" encoding="iso-8859-1"?>
<!-- Generator: Adobe Illustrator 19.0.0, SVG Export Plug-In . SVG Version: 6.00 Build 0)  -->
<svg version="1.1" id="Layer_1" xmlns="http://www.w3.org/2000/svg" xmlns:xlink="http://www.w3.org/1999/xlink" x="0px" y="0px"
	 viewBox="0 0 512.001 512.001" style="enable-background:new 0 0 512.001 512.001;" xml:space="preserve">
<g>
	<g>
		<g>
			<path d="M133.701,400.37h1.941c4.142,0,7.5-3.358,7.5-7.5c0-4.142-3.358-7.5-7.5-7.5h-1.941c-4.142,0-7.5,3.358-7.5,7.5
				C126.201,397.012,129.558,400.37,133.701,400.37z"/>
			<path d="M104.579,400.37h1.941c4.142,0,7.5-3.358,7.5-7.5c0-4.142-3.358-7.5-7.5-7.5h-1.941c-4.142,0-7.5,3.358-7.5,7.5
				C97.079,397.012,100.438,400.37,104.579,400.37z"/>
			<path d="M150.281,416.688c0.824-4.059-1.798-8.018-5.858-8.842c-4.058-0.821-8.018,1.799-8.842,5.858
				c-1.577,7.768-8.488,13.406-16.432,13.406c-7.945,0-14.855-5.638-16.432-13.406c-0.824-4.06-4.78-6.682-8.842-5.858
				c-4.059,0.824-6.682,4.783-5.858,8.842c2.99,14.73,16.083,25.422,31.132,25.422C134.198,442.109,147.292,431.418,150.281,416.688
				z"/>
			<path d="M288.987,238.262h4.512c5.767,0,11.119-2.865,14.317-7.663l20.123-30.183c0.41-0.616,1.096-0.983,1.836-0.983h114.543
				c4.142,0,7.5-3.358,7.5-7.5c0-4.142-3.358-7.5-7.5-7.5H329.773c-5.767,0-11.119,2.865-14.317,7.663l-20.123,30.183
				c-0.41,0.616-1.096,0.983-1.836,0.983h-4.512c-1.217,0-2.207-0.99-2.207-2.207V17.207c0-1.217,0.99-2.207,2.207-2.207h205.807
				c1.217,0,2.207,0.99,2.207,2.207v165.02c0,1.217-0.99,2.207-2.207,2.207h-21.355c-4.142,0-7.5,3.358-7.5,7.5
				c0,4.142,3.358,7.5,7.5,7.5h21.355c9.488,0,17.207-7.719,17.207-17.207V17.207C512,7.719,504.281,0,494.794,0H288.987
				c-9.488,0-17.207,7.719-17.207,17.207v203.848C271.779,230.543,279.498,238.262,288.987,238.262z"/>
			<path d="M464.432,444.316v-67.949c0-4.142-3.358-7.5-7.5-7.5c-4.142,0-7.5,3.358-7.5,7.5v67.949c0,4.142,3.358,7.5,7.5,7.5
				C461.073,451.816,464.432,448.458,464.432,444.316z"/>
			<path d="M376.927,51.527c-2.854-1.957-6.191-2.991-9.651-2.991h-0.982c-9.411,0-17.067,7.656-17.067,17.067v69.685
				c0,9.411,7.656,17.067,17.067,17.067c3.473,0,6.82-1.041,9.681-3.011l51.195-35.261c4.631-3.191,7.392-8.452,7.386-14.076
				c-0.006-5.623-2.779-10.879-7.417-14.058L376.927,51.527z M418.66,101.728l-51.194,35.261c-0.347,0.239-0.753,0.365-1.173,0.365
				c-1.14,0-2.067-0.927-2.067-2.067V65.602c0-1.14,0.927-2.067,2.067-2.067h0.982c0.419,0,0.823,0.125,1.169,0.362l50.213,34.423
				c0.78,0.536,0.898,1.297,0.898,1.703C419.555,100.43,419.44,101.192,418.66,101.728z"/>
			<path d="M223.015,271.797h-4.512c-5.767,0-11.119,2.865-14.317,7.663l-20.123,30.183c-0.41,0.616-1.096,0.983-1.836,0.983H65.742
				c-4.142,0-7.5,3.358-7.5,7.5c0,4.142,3.358,7.5,7.5,7.5h116.484c5.767,0,11.119-2.865,14.317-7.663l20.123-30.183
				c0.41-0.616,1.096-0.983,1.836-0.983h4.512c1.217,0,2.207,0.99,2.207,2.207v205.789c0,1.217-0.99,2.207-2.207,2.207H17.208
				C15.99,497,15,496.01,15,494.793V327.832c0-1.217,0.99-2.207,2.207-2.207h19.414c4.142,0,7.5-3.358,7.5-7.5
				c0-4.142-3.358-7.5-7.5-7.5H17.208C7.719,310.625,0,318.344,0,327.832v166.961C0,504.281,7.719,512,17.208,512h205.807
				c9.488,0,17.207-7.719,17.207-17.207V289.004C240.221,279.516,232.503,271.797,223.015,271.797z"/>
			<path d="M52.161,73.242H188.06c4.142,0,7.5-3.358,7.5-7.5c0-4.142-3.358-7.5-7.5-7.5H52.161c-4.142,0-7.5,3.358-7.5,7.5
				C44.661,69.884,48.019,73.242,52.161,73.242z"/>
			<path d="M52.161,131.484h69.909c4.142,0,7.5-3.358,7.5-7.5c0-4.142-3.358-7.5-7.5-7.5H52.161c-4.142,0-7.5,3.358-7.5,7.5
				C44.661,128.126,48.019,131.484,52.161,131.484z"/>
			<path d="M494.794,310.625h-165.02c-0.74,0-1.426-0.367-1.836-0.983l-20.122-30.183c-3.199-4.798-8.551-7.663-14.317-7.663h-4.512
				c-9.488,0-17.207,7.719-17.207,17.207v155.313c0,4.142,3.358,7.5,7.5,7.5c4.142,0,7.5-3.358,7.5-7.5V289.004
				c0-1.217,0.99-2.207,2.207-2.207h4.512c0.74,0,1.426,0.367,1.836,0.983l20.122,30.183c3.199,4.798,8.551,7.663,14.317,7.663
				h165.02c1.217,0,2.207,0.99,2.207,2.207v166.961c0,1.217-0.99,2.207-2.207,2.207H288.987c-1.217,0-2.207-0.99-2.207-2.207
				v-21.355c0-4.142-3.358-7.5-7.5-7.5c-4.142,0-7.5,3.358-7.5,7.5v21.355c0,9.488,7.719,17.207,17.207,17.207h205.807
				c9.488,0,17.207-7.719,17.207-17.207V327.832C512,318.344,504.281,310.625,494.794,310.625z"/>
			<path d="M439.185,421.667v-22.649c0-4.142-3.358-7.5-7.5-7.5c-4.142,0-7.5,3.358-7.5,7.5v22.649c0,4.142,3.358,7.5,7.5,7.5
				C435.826,429.167,439.185,425.809,439.185,421.667z"/>
			<path d="M181,410.341c0-33.575-27.314-60.889-60.889-60.889c-33.575,0-60.889,27.314-60.889,60.889s27.315,60.889,60.889,60.889
				C153.685,471.23,181,443.916,181,410.341z M74.221,410.341c0-25.304,20.585-45.889,45.889-45.889S166,385.037,166,410.341
				s-20.586,45.889-45.889,45.889C94.807,456.23,74.221,435.645,74.221,410.341z"/>
			<path d="M223.015,0H17.208C7.719,0,0,7.719,0,17.207v29.121c0,4.142,3.358,7.5,7.5,7.5s7.5-3.358,7.5-7.5V17.207
				C15,15.99,15.99,15,17.208,15h205.807c1.217,0,2.207,0.99,2.207,2.207v203.849c0,1.217-0.99,2.207-2.207,2.207h-4.512
				c-0.739,0-1.425-0.367-1.836-0.983l-20.122-30.183c-3.198-4.798-8.55-7.663-14.317-7.663H17.208c-1.217,0-2.207-0.99-2.207-2.207
				V75.449c0-4.142-3.358-7.5-7.5-7.5S0,71.307,0,75.449v106.778c0,9.487,7.719,17.207,17.207,17.206h165.02
				c0.739,0,1.425,0.367,1.836,0.983l20.122,30.183c3.198,4.798,8.55,7.663,14.317,7.663h4.512c9.488,0,17.207-7.719,17.207-17.207
				V17.207C240.221,7.719,232.503,0,223.015,0z"/>
			<path d="M52.161,102.363H188.06c4.142,0,7.5-3.358,7.5-7.5c0-4.142-3.358-7.5-7.5-7.5H52.161c-4.142,0-7.5,3.358-7.5,7.5
				C44.661,99.005,48.019,102.363,52.161,102.363z"/>
			<path d="M336.555,442.109h17.338l37.933,22.76c2.105,1.262,4.479,1.895,6.856,1.895c2.264,0,4.53-0.575,6.564-1.727
				c4.169-2.36,6.759-6.803,6.759-11.594v-86.204c0-4.791-2.59-9.234-6.759-11.594c-4.17-2.36-9.311-2.296-13.421,0.169
				l-37.933,22.76h-17.337c-9.488,0-17.207,7.719-17.207,17.207v29.121C319.349,434.39,327.068,442.109,336.555,442.109
				L336.555,442.109z M363.469,390.321l33.535-20.121v80.284l-33.535-20.121V390.321z M334.349,424.902v-29.121
				c0-1.217,0.99-2.207,2.207-2.207h11.914v33.535h-11.914C335.339,427.109,334.349,426.119,334.349,424.902z"/>
		</g>
	</g>
</g>
<g>
</g>
<g>
</g>
<g>
</g>
<g>
</g>
<g>
</g>
<g>
</g>
<g>
</g>
<g>
</g>
<g>
</g>
<g>
</g>
<g>
</g>
<g>
</g>
<g>
</g>
<g>
</g>
<g>
</g>
</svg>
